<svg class="icon_button_svg" viewBox="0 0 24 24" xmlns="http://www.w3.org/2000/svg" color="#fff"><path fill-rule="evenodd" clip-rule="evenodd" d="M12.4163 4.09082C12.772 4.25366 13 4.60889 13 5.00003L13 19C13 19.3912 12.772 19.7464 12.4163 19.9093C12.0607 20.0721 11.6428 20.0126 11.3467 19.7571L6.99324 16H3C2.44772 16 2 15.5523 2 15L2 9.00003C2 8.44775 2.44772 8.00003 3 8.00003H6.99324L11.3467 4.24298C11.6428 3.98743 12.0607 3.92798 12.4163 4.09082ZM11 7.18395L8.27335 9.53709C8.2643 9.5449 8.25512 9.55254 8.2458 9.56002C7.89392 9.84234 7.45693 9.9974 7.0058 10L7 10.0001L4 10L4 14H7.0058C7.45693 14.0027 7.89392 14.1577 8.2458 14.4401C8.25512 14.4475 8.2643 14.4552 8.27335 14.463L11 16.8161L11 7.18395Z" fill="currentColor"></path><path fill-rule="evenodd" clip-rule="evenodd" d="M16.8822 4.37149C17.2294 3.94194 17.859 3.87512 18.2885 4.22226C19.4485 5.15965 20.3841 6.34462 21.0268 7.69039C21.6696 9.03616 22.0031 10.5087 22.0031 12C22.0031 13.4914 21.6696 14.9639 21.0268 16.3097C20.3841 17.6554 19.4485 18.8404 18.2885 19.7778C17.859 20.1249 17.2294 20.0581 16.8822 19.6286C16.5351 19.199 16.6019 18.5694 17.0315 18.2223C17.9594 17.4723 18.7079 16.5244 19.2221 15.4477C19.7363 14.3711 20.0031 13.1931 20.0031 12C20.0031 10.8069 19.7363 9.62894 19.2221 8.55232C18.7079 7.4757 17.9594 6.52772 17.0315 5.77781C16.6019 5.43068 16.5351 4.80105 16.8822 4.37149Z" fill="currentColor"></path><path fill-rule="evenodd" clip-rule="evenodd" d="M14.7222 7.87149C15.0694 7.44194 15.699 7.37512 16.1285 7.72226C16.7665 8.23782 17.2811 8.88955 17.6346 9.62973C17.9881 10.3699 18.1716 11.1798 18.1716 12C18.1716 12.8203 17.9881 13.6302 17.6346 14.3703C17.2811 15.1105 16.7665 15.7622 16.1285 16.2778C15.699 16.6249 15.0694 16.5581 14.7222 16.1286C14.3751 15.699 14.4419 15.0694 14.8715 14.7223C15.2774 14.3942 15.6049 13.9794 15.8299 13.5084C16.0548 13.0374 16.1716 12.522 16.1716 12C16.1716 11.4781 16.0548 10.9627 15.8299 10.4917C15.6049 10.0206 15.2774 9.6059 14.8715 9.27781C14.4419 8.93068 14.3751 8.30105 14.7222 7.87149Z" fill="currentColor"></path></svg>