<svg class="icon_button_svg" viewBox="0 0 24 24" xmlns="http://www.w3.org/2000/svg" color="#fff"><path fill-rule="evenodd" clip-rule="evenodd" d="M12.4163 4.0908C12.772 4.25364 13 4.60887 13 5.00001L13 19C13 19.3912 12.772 19.7464 12.4163 19.9092C12.0607 20.0721 11.6428 20.0126 11.3467 19.7571L6.99324 16H3C2.44772 16 2 15.5523 2 15L2 9.00001C2 8.44773 2.44772 8.00001 3 8.00001H6.99324L11.3467 4.24296C11.6428 3.98741 12.0607 3.92796 12.4163 4.0908ZM11 7.18393L8.27335 9.53707C8.2643 9.54488 8.25512 9.55252 8.2458 9.56C7.89392 9.84232 7.45693 9.99738 7.0058 10L7 10L4 10L4 14H7.0058C7.45693 14.0026 7.89392 14.1577 8.2458 14.44C8.25512 14.4475 8.2643 14.4552 8.27335 14.463L11 16.8161L11 7.18393Z" fill="currentColor"></path><path d="M16.71 9.29002L18 10.58L19.29 9.29002C19.4783 9.10171 19.7337 8.99592 20 8.99592C20.2663 8.99592 20.5217 9.10171 20.71 9.29002C20.8983 9.47832 21.0041 9.73371 21.0041 10C21.0041 10.2663 20.8983 10.5217 20.71 10.71L19.41 12L20.71 13.29C20.8032 13.3833 20.8772 13.4939 20.9277 13.6158C20.9781 13.7376 21.0041 13.8682 21.0041 14C21.0041 14.1319 20.9781 14.2624 20.9277 14.3843C20.8772 14.5061 20.8032 14.6168 20.71 14.71C20.6168 14.8033 20.5061 14.8772 20.3842 14.9277C20.2624 14.9781 20.1319 15.0041 20 15.0041C19.8681 15.0041 19.7376 14.9781 19.6158 14.9277C19.4939 14.8772 19.3832 14.8033 19.29 14.71L18 13.41L16.71 14.71C16.5217 14.8983 16.2663 15.0041 16 15.0041C15.7337 15.0041 15.4783 14.8983 15.29 14.71C15.1017 14.5217 14.9959 14.2663 14.9959 14C14.9959 13.7337 15.1017 13.4783 15.29 13.29L16.58 12L15.29 10.71C15.1968 10.6168 15.1228 10.5061 15.0723 10.3843C15.0219 10.2624 14.9959 10.1319 14.9959 10C14.9959 9.86816 15.0219 9.73759 15.0723 9.61577C15.1228 9.49394 15.1968 9.38325 15.29 9.29002C15.3832 9.19678 15.4939 9.12282 15.6158 9.07236C15.7376 9.02189 15.8681 8.99592 16 8.99592C16.1319 8.99592 16.2624 9.02189 16.3842 9.07236C16.5061 9.12282 16.6168 9.19678 16.71 9.29002Z" fill="currentColor"></path></svg>